<?xml version="1.0" encoding="utf-8"?>
<!-- Generator: Adobe Illustrator 19.0.0, SVG Export Plug-In . SVG Version: 6.00 Build 0)  -->
<svg version="1.1" id="layer" xmlns="http://www.w3.org/2000/svg" xmlns:xlink="http://www.w3.org/1999/xlink" x="0px" y="0px"
	 viewBox="-153 -46 652 652" style="enable-background:new -153 -46 652 652;" xml:space="preserve">
<style type="text/css">
	.st0{fill-rule:evenodd;clip-rule:evenodd;fill:#009944;}
	.st1{fill:#009944;}
	.st2{fill-rule:evenodd;clip-rule:evenodd;fill:#DAB866;}
	.st3{fill-rule:evenodd;clip-rule:evenodd;fill:#231815;}
</style>
<path class="st0" d="M-88.2,318.7c-1.2-6.4-7.4-6.6-9.8-11.8C-96.7,313.9-90.5,314-88.2,318.7"/>
<path class="st1" d="M-85.8,336.8c0,0,3.8-13.5,22.1-12.6c0.6,0-12.8-2.5-20.8,8.1c0.2,0.9,4.5-17.7,27.1-7.2
	c-11.2,1.6-12.4,9.4-25.4,7.8c0,0-1.9,2.9-2.2,5.3"/>
<path class="st1" d="M-86.1,311.8c4-7.3,16.1-22,49.5-26.2c1.1-0.2-19.7,0.4-36.9,11.4c-4,2.5-8.3,5.8-11.1,9.1
	c-0.3,0.4-0.7,0.9-1,1.3c1.4-3.4,3.7-6.8,5.9-10c8.7-12.6,27.5-19.3,63.3-12.8c-30.7,3.5-27.8,20.9-61.6,23.2c-1.6,0.2-3.9,0-5.1,1
	c-1.5,1.2-3.2,3.8-3.7,6.8"/>
<path class="st0" d="M-88.6,388c7.6-28.5-6.7-70.4,5.4-102.8C-90.4,318.4-75.7,364.2-88.6,388"/>
<g>
	<path class="st2" d="M-32.3,274.4c-4.2,3.2-9.8,3.6-14.1,1.6c0,0-1.2-0.5-2.3-1.7C-49.6,273-73.4,246-73.4,246l-0.1-0.1
		c7.4,1.3,15.4-2.2,19.6-8.7c4.2-6.2,4-14.9,0.1-21.1c-4.7-6.7-13.9-8.9-21.6-7.9c-13.3,1.9-22.9,13.8-25.9,26.3
		c-3.1,14.2-0.9,27.6,3.9,40.2c1.1,2.7,2.6,5.5,4.4,7.8c-14-6.2-26.4-17.5-32.9-32.7c-7.2-16.4-7.1-37.2,1.5-53.8
		c6.7-12.9,18.7-24.8,33.4-29.8c15.4-6.4,36.2-5,51.3,3.5c18.3,9.2,32.1,32,32.1,52.3C-7,243.1-16.2,262.1-32.3,274.4"/>
</g>
<path class="st2" d="M-83.5,282.4c-6.8-7.4-12.3-17.1-8.2-27.1c3.7-7.7,7-15.4,8.6-24.3c0.6,9.2,6.2,17.4,8.8,26.3
	c1,4.2,1.1,8.7-0.5,13.1c-1.8,4.8-4.7,8.9-8.1,12.6"/>
<path class="st1" d="M59.7,311.9h-3.3c-0.6-2.3-1.9-4.8-3.8-7.5c-1.9-2.6-3.8-4.1-5.6-4.4c-0.9-0.1-2-0.2-3.2-0.3
	c-1.2-0.1-2.6-0.1-4.2-0.1H29.1v25.1h7.1c2.2,0,3.8-0.2,5-0.7c1.2-0.5,2.2-1.2,3.1-2.1c0.6-0.7,1.1-1.7,1.6-3
	c0.5-1.4,0.8-2.8,0.9-4.4h3.3v24.6h-3.3c-0.1-1.3-0.4-2.8-0.9-4.4c-0.5-1.6-1.1-2.8-1.7-3.6c-0.9-1.1-2-1.8-3.3-2.2
	c-1.3-0.4-2.9-0.6-4.8-0.6h-7.1V350c0,1,0.2,1.8,0.6,2.6c0.4,0.8,1,1.4,2,1.8c0.4,0.2,1.4,0.5,2.8,0.8c1.5,0.3,2.6,0.4,3.3,0.5v3.1
	H11v-3.1c0.9-0.1,2.1-0.2,3.5-0.3c1.5-0.1,2.4-0.3,2.9-0.5c0.9-0.4,1.5-1,1.9-1.7c0.4-0.7,0.6-1.7,0.6-2.7v-45.2
	c0-1-0.2-1.8-0.5-2.6c-0.3-0.7-1-1.4-2-1.8c-0.8-0.4-1.9-0.7-3.2-1c-1.3-0.3-2.4-0.5-3.2-0.5v-3.1h48.8 M106.2,336.6
	c0,3.1-0.5,6.1-1.4,9c-1,3-2.4,5.5-4.1,7.5c-2,2.4-4.4,4.1-7,5.3c-2.7,1.1-5.6,1.7-8.9,1.7c-2.8,0-5.4-0.5-7.8-1.6
	c-2.5-1-4.7-2.6-6.6-4.6c-1.9-2-3.4-4.4-4.5-7.2c-1.1-2.8-1.7-6-1.7-9.6c0-6.8,2-12.3,5.9-16.7c3.9-4.3,9.1-6.5,15.4-6.5
	c6,0,11,2.1,15,6.2C104.2,324.3,106.2,329.8,106.2,336.6 M97.1,336.7c0-2.2-0.2-4.5-0.7-7c-0.4-2.4-1.1-4.5-2-6.2
	c-0.9-1.8-2.2-3.3-3.7-4.4c-1.5-1.1-3.4-1.7-5.6-1.7c-2.2,0-4.2,0.6-5.8,1.7c-1.6,1.1-2.9,2.6-3.9,4.6c-0.9,1.8-1.6,3.8-2,6.1
	c-0.4,2.3-0.6,4.5-0.6,6.7c0,2.8,0.2,5.4,0.7,7.8c0.5,2.4,1.2,4.5,2.2,6.4c1,1.9,2.2,3.4,3.7,4.4c1.5,1.1,3.4,1.6,5.6,1.6
	c3.6,0,6.5-1.8,8.7-5.3C96.1,347.9,97.1,343,97.1,336.7 M158.8,358l-14.1,1l-0.7-0.6v-5.5h-0.3c-0.7,0.7-1.5,1.5-2.4,2.4
	c-0.9,0.8-1.9,1.6-3,2.3c-1.3,0.8-2.6,1.4-3.8,1.8c-1.2,0.4-3,0.6-5.2,0.6c-3.8,0-6.7-1.2-8.7-3.8c-2-2.5-3-6.2-3-11v-20.8
	c0-1-0.2-1.9-0.6-2.7c-0.4-0.7-1-1.4-1.7-1.9c-0.5-0.4-1.2-0.6-2-0.8c-0.8-0.2-1.6-0.3-2.5-0.3v-2.9l14.4-1l0.7,0.6v30.2
	c0,3.1,0.7,5.5,2.1,7.1c1.4,1.6,3.1,2.4,5,2.4c1.6,0,3-0.3,4.3-0.7c1.3-0.5,2.3-1.1,3.1-1.8c0.8-0.6,1.5-1.3,2.1-2
	c0.6-0.7,1.1-1.3,1.4-1.9v-24.7c0-1-0.2-1.8-0.6-2.6c-0.4-0.8-1-1.4-1.7-1.9c-0.5-0.4-1.3-0.6-2.4-0.6c-1-0.1-2.2-0.1-3.5-0.2v-2.9
	l15.7-1l0.7,0.6V350c0,1,0.2,1.9,0.6,2.6c0.4,0.7,1,1.3,1.7,1.8c0.5,0.3,1.1,0.5,1.9,0.7c0.7,0.1,1.5,0.2,2.4,0.2V358z M211.8,358.8
	h-21.2v-2.9c0.7-0.1,1.4-0.1,2.2-0.2c0.8-0.1,1.5-0.2,2-0.4c0.8-0.3,1.4-0.7,1.8-1.4c0.4-0.7,0.6-1.5,0.6-2.6V329
	c0-3.1-0.7-5.5-2.2-7.1c-1.5-1.7-3.2-2.5-5.3-2.5c-1.6,0-3,0.2-4.3,0.7c-1.3,0.5-2.4,1.1-3.4,1.8c-1,0.7-1.7,1.4-2.3,2.2
	c-0.6,0.8-1,1.4-1.2,1.9v25c0,1,0.2,1.8,0.6,2.5c0.4,0.6,1,1.1,1.8,1.5c0.6,0.3,1.3,0.5,2,0.7c0.7,0.2,1.4,0.3,2.2,0.3v2.9h-21.2
	v-2.9c0.7-0.1,1.4-0.1,2.1-0.2c0.7-0.1,1.3-0.2,1.9-0.4c0.8-0.3,1.4-0.7,1.8-1.4c0.4-0.7,0.6-1.5,0.6-2.6v-26.9c0-1-0.2-1.9-0.7-2.8
	c-0.4-0.8-1-1.5-1.8-2.1c-0.5-0.3-1.2-0.6-2-0.8c-0.8-0.2-1.6-0.3-2.5-0.3v-2.9l14.4-1l0.6,0.6v6.1h0.2c0.7-0.7,1.6-1.6,2.6-2.5
	c1-1,2.1-1.8,3-2.4c1.1-0.7,2.4-1.3,3.9-1.8c1.5-0.5,3.2-0.7,5-0.7c4.2,0,7.2,1.3,9.2,3.9c2,2.6,3,6.1,3,10.4v22.6
	c0,1,0.2,1.9,0.5,2.5c0.3,0.6,0.9,1.1,1.8,1.5c0.7,0.3,1.3,0.5,1.8,0.6c0.5,0.1,1.2,0.2,2.1,0.3V358.8z M264.4,358l-15.1,1l-0.7-0.6
	v-4.1l-0.3-0.1c-1.5,1.7-3.4,3.1-5.6,4.2c-2.2,1.1-4.5,1.6-6.9,1.6c-2.4,0-4.8-0.6-7.1-1.7c-2.3-1.1-4.3-2.6-6-4.6
	c-1.7-2-3.1-4.5-4.1-7.3c-1-2.9-1.5-6-1.5-9.4c0-3.1,0.5-6.1,1.6-9c1.1-2.8,2.6-5.3,4.5-7.4c1.8-2,4-3.5,6.6-4.7
	c2.6-1.2,5.2-1.8,7.9-1.8c2,0,4,0.3,5.9,0.8c1.9,0.5,3.6,1.2,5,2v-15.1c0-1.2-0.2-2.4-0.6-3.4c-0.4-1-1-1.8-1.7-2.3
	c-0.8-0.6-1.9-1-3.3-1.2c-1.4-0.2-2.9-0.4-4.5-0.5v-2.7l17.7-1l0.7,0.7v58.7c0,1,0.2,1.9,0.6,2.6c0.4,0.7,1,1.3,1.7,1.8
	c0.6,0.4,1.4,0.6,2.4,0.7c1,0.1,2,0.2,2.9,0.2V358z M248.6,350.4V325c-0.2-0.8-0.6-1.6-1.1-2.5c-0.5-0.9-1.2-1.7-2-2.4
	c-0.8-0.7-1.8-1.4-3-1.8c-1.1-0.5-2.5-0.7-4-0.7c-1.8,0-3.4,0.5-4.8,1.4c-1.5,0.9-2.8,2.2-3.9,3.9c-1.1,1.7-1.9,3.8-2.6,6.3
	c-0.6,2.5-0.9,5.4-0.9,8.4c0,2.5,0.2,4.7,0.7,6.7c0.5,2,1.3,3.9,2.4,5.6c1,1.7,2.3,3,3.9,4c1.6,1,3.5,1.5,5.7,1.5
	c2.3,0,4.3-0.5,5.8-1.6C246.2,352.8,247.5,351.6,248.6,350.4 M309.5,358c-1.4,0.5-2.6,0.9-3.6,1.2c-1,0.3-2.2,0.5-3.5,0.5
	c-2.3,0-4.1-0.5-5.5-1.6c-1.4-1.1-2.2-2.6-2.6-4.7H294c-1.9,2.1-3.9,3.7-6.1,4.9c-2.2,1.1-4.8,1.7-7.8,1.7c-3.2,0-5.9-1-8-3
	c-2.1-2-3.1-4.6-3.1-7.8c0-1.7,0.2-3.2,0.7-4.5c0.5-1.3,1.2-2.5,2.1-3.6c0.7-0.9,1.7-1.7,2.9-2.4c1.2-0.7,2.3-1.2,3.4-1.7
	c1.3-0.5,4-1.4,8-2.8c4-1.4,6.7-2.4,8.1-3.2v-4.4c0-0.4-0.1-1.1-0.2-2.2c-0.2-1.1-0.5-2.1-1-3.1c-0.6-1.1-1.4-2.1-2.5-2.8
	c-1.1-0.8-2.6-1.2-4.5-1.2c-1.3,0-2.6,0.2-3.7,0.7c-1.1,0.4-2,0.9-2.4,1.4c0,0.6,0.1,1.4,0.4,2.6c0.3,1.1,0.4,2.2,0.4,3.2
	c0,1-0.5,2-1.4,2.8c-0.9,0.9-2.2,1.3-3.8,1.3c-1.4,0-2.5-0.5-3.2-1.6s-1-2.2-1-3.5c0-1.4,0.5-2.7,1.4-3.9c1-1.2,2.2-2.3,3.7-3.3
	c1.3-0.8,2.9-1.5,4.8-2.1c1.9-0.6,3.7-0.9,5.5-0.9c2.4,0,4.6,0.2,6.4,0.5c1.8,0.3,3.5,1.1,5,2.2c1.5,1.1,2.6,2.6,3.4,4.4
	c0.8,1.9,1.2,4.3,1.2,7.2c0,4.2,0,7.9-0.1,11.2c-0.1,3.3-0.1,6.8-0.1,10.7c0,1.1,0.2,2.1,0.6,2.7c0.4,0.7,1,1.3,1.8,1.7
	c0.5,0.3,1.1,0.4,2.1,0.4c1,0,1.9,0,2.9,0V358z M294.2,334.7c-2.5,0.7-4.7,1.5-6.5,2.2c-1.9,0.7-3.6,1.6-5.2,2.6
	c-1.5,1-2.6,2.2-3.5,3.5c-0.8,1.4-1.3,3-1.3,4.9c0,2.4,0.6,4.2,1.9,5.4c1.3,1.1,2.9,1.7,4.8,1.7c2.1,0,3.9-0.5,5.5-1.5
	c1.6-1,2.9-2.2,4-3.6L294.2,334.7z M340.5,356.9c-1.9,0.8-3.7,1.5-5.4,2c-1.7,0.5-3.8,0.8-6.2,0.8c-3.6,0-6.2-0.9-7.6-2.8
	c-1.5-1.8-2.2-4.4-2.2-7.8v-29.5h-7.8v-4.2h8V302h8v13.5h12.4v4.2h-12.3v24.3c0,1.8,0.1,3.3,0.2,4.6c0.1,1.2,0.4,2.3,0.9,3.2
	c0.5,0.9,1.2,1.5,2.1,1.9c0.9,0.4,2.2,0.7,3.8,0.7c0.7,0,1.8-0.1,3.2-0.2c1.4-0.1,2.4-0.3,3-0.5V356.9z M365.7,358.8h-20.9v-2.9
	c0.7-0.1,1.4-0.1,2.1-0.2c0.7-0.1,1.3-0.2,1.8-0.4c0.8-0.3,1.4-0.7,1.8-1.4c0.4-0.7,0.6-1.5,0.6-2.6v-26.9c0-0.9-0.2-1.8-0.6-2.6
	c-0.4-0.8-1-1.4-1.8-2c-0.6-0.4-1.3-0.7-2.4-0.9c-1-0.3-2-0.4-2.9-0.5v-2.9l15.3-1l0.6,0.6v35.5c0,1,0.2,1.9,0.6,2.6
	c0.4,0.7,1,1.2,1.9,1.5c0.6,0.3,1.3,0.5,1.9,0.7c0.6,0.1,1.3,0.3,2.1,0.3V358.8z M360.2,297.7c0,1.7-0.5,3.1-1.6,4.4
	c-1.1,1.2-2.4,1.9-4.1,1.9c-1.5,0-2.8-0.6-3.9-1.8c-1.1-1.2-1.6-2.6-1.6-4.1c0-1.6,0.6-3,1.6-4.2c1.1-1.2,2.4-1.8,3.9-1.8
	c1.7,0,3,0.6,4.1,1.7C359.7,294.8,360.2,296.1,360.2,297.7 M413.1,336.6c0,3.1-0.5,6.1-1.4,9c-1,3-2.3,5.5-4.1,7.5
	c-2,2.4-4.3,4.1-7,5.3c-2.7,1.1-5.6,1.7-8.9,1.7c-2.8,0-5.4-0.5-7.8-1.6c-2.5-1-4.7-2.6-6.6-4.6c-1.9-2-3.4-4.4-4.5-7.2
	c-1.1-2.8-1.7-6-1.7-9.6c0-6.8,2-12.3,5.9-16.7c3.9-4.3,9.1-6.5,15.4-6.5c6,0,11,2.1,15,6.2C411.2,324.3,413.1,329.8,413.1,336.6
	 M404.1,336.7c0-2.2-0.2-4.5-0.7-7c-0.4-2.4-1.1-4.5-2-6.2c-0.9-1.8-2.1-3.3-3.7-4.4c-1.5-1.1-3.4-1.7-5.6-1.7
	c-2.2,0-4.2,0.6-5.8,1.7c-1.6,1.1-2.9,2.6-3.9,4.6c-0.9,1.8-1.6,3.8-2,6.1c-0.4,2.3-0.6,4.5-0.6,6.7c0,2.8,0.2,5.4,0.7,7.8
	c0.4,2.4,1.2,4.5,2.2,6.4c1,1.9,2.2,3.4,3.7,4.4c1.5,1.1,3.4,1.6,5.6,1.6c3.6,0,6.5-1.8,8.7-5.3C403,347.9,404.1,343,404.1,336.7
	 M467.1,358.8H446v-2.9c0.7-0.1,1.4-0.1,2.2-0.2c0.8-0.1,1.5-0.2,2-0.4c0.8-0.3,1.4-0.7,1.8-1.4c0.4-0.7,0.6-1.5,0.6-2.6V329
	c0-3.1-0.7-5.5-2.2-7.1c-1.4-1.7-3.2-2.5-5.3-2.5c-1.6,0-3,0.2-4.3,0.7c-1.3,0.5-2.4,1.1-3.4,1.8c-1,0.7-1.7,1.4-2.3,2.2
	c-0.6,0.8-1,1.4-1.2,1.9v25c0,1,0.2,1.8,0.6,2.5c0.4,0.6,1,1.1,1.8,1.5c0.6,0.3,1.3,0.5,2,0.7c0.7,0.2,1.4,0.3,2.2,0.3v2.9h-21.2
	v-2.9c0.7-0.1,1.4-0.1,2.1-0.2c0.7-0.1,1.3-0.2,1.9-0.4c0.8-0.3,1.4-0.7,1.8-1.4c0.4-0.7,0.6-1.5,0.6-2.6v-26.9c0-1-0.2-1.9-0.6-2.8
	c-0.4-0.8-1-1.5-1.8-2.1c-0.5-0.3-1.2-0.6-2-0.8c-0.8-0.2-1.6-0.3-2.4-0.3v-2.9l14.4-1l0.6,0.6v6.1h0.2c0.7-0.7,1.6-1.6,2.6-2.5
	c1-1,2-1.8,3-2.4c1.1-0.7,2.4-1.3,3.9-1.8c1.5-0.5,3.2-0.7,5-0.7c4.2,0,7.2,1.3,9.2,3.9c2,2.6,3,6.1,3,10.4v22.6
	c0,1,0.2,1.9,0.5,2.5c0.3,0.6,0.9,1.1,1.8,1.5c0.7,0.3,1.3,0.5,1.8,0.6c0.5,0.1,1.2,0.2,2.1,0.3V358.8z"/>
<path class="st3" d="M93.2,273.6h-23c-5.1-8-9.7-15-13.9-20.9c-4.1-5.9-8.6-11.9-13.4-18.2h-8.7v27.3c0,1.4,0.2,2.7,0.7,3.7
	c0.4,1.1,1.4,1.9,2.8,2.4c0.7,0.3,2,0.6,3.8,0.8c1.8,0.3,3.3,0.4,4.6,0.4v4.3H9.9v-4.3c1-0.1,2.4-0.2,4.2-0.4
	c1.8-0.2,3.1-0.5,3.8-0.8c1.2-0.5,2.1-1.3,2.6-2.3c0.6-1,0.8-2.3,0.8-3.9v-62.3c0-1.4-0.2-2.7-0.6-3.8c-0.4-1.1-1.3-1.9-2.8-2.5
	c-1-0.4-2.3-0.7-3.9-1c-1.6-0.3-3-0.5-4.1-0.6v-4.3h39.5c3.6,0,7,0.4,10.2,1.1c3.2,0.7,6,1.9,8.6,3.6c2.5,1.6,4.5,3.7,6,6.3
	c1.5,2.6,2.3,5.8,2.3,9.4c0,3.3-0.5,6.3-1.5,8.8c-1,2.5-2.5,4.7-4.5,6.6c-1.8,1.7-4,3.3-6.5,4.5c-2.5,1.3-5.3,2.4-8.4,3.3
	c4.2,5.6,7.7,10.4,10.5,14.2c2.8,3.8,6.2,8.5,10.3,14c1.8,2.4,3.4,4.2,4.8,5.4c1.4,1.1,2.8,2.1,4.2,2.8c1,0.5,2.4,0.9,3.9,1.2
	c1.6,0.3,2.8,0.4,3.9,0.5 M61.5,209.3c0-5.2-1.5-9.3-4.5-12.4c-3-3.1-7.2-4.6-12.6-4.6H34.2v37h7.9c5.5,0,10.2-1.8,13.8-5.4
	C59.7,220.3,61.5,215.5,61.5,209.3 M147.8,259.5c-2.5,4.8-5.8,8.6-10,11.4c-4.2,2.8-9,4.2-14.4,4.2c-4.8,0-9-0.8-12.6-2.5
	c-3.6-1.7-6.6-4-8.9-6.9c-2.3-2.9-4.1-6.3-5.2-10.2c-1.1-3.9-1.7-8-1.7-12.3c0-3.9,0.6-7.7,1.8-11.4c1.2-3.7,3-7.1,5.4-10.1
	c2.3-2.9,5.1-5.2,8.5-7c3.4-1.8,7.2-2.7,11.4-2.7c4.3,0,8.1,0.7,11.2,2.1c3.1,1.4,5.6,3.2,7.5,5.6c1.9,2.3,3.2,4.9,4.1,8
	c0.9,3.1,1.4,6.4,1.4,10v4H107c0,3.9,0.4,7.5,1.1,10.7c0.7,3.2,1.9,6,3.5,8.4c1.6,2.3,3.6,4.2,6.1,5.6c2.5,1.3,5.6,2,9.1,2
	c3.6,0,6.7-0.8,9.3-2.5c2.6-1.7,5.1-4.7,7.5-9.1L147.8,259.5z M134.5,236.6c0-2.3-0.2-4.7-0.6-7.3c-0.4-2.6-1-4.7-1.8-6.5
	c-0.9-1.9-2.2-3.4-3.8-4.6c-1.6-1.2-3.7-1.8-6.2-1.8c-4.2,0-7.7,1.8-10.5,5.3c-2.8,3.5-4.3,8.5-4.5,14.8H134.5z M181.5,273.6h-28
	v-3.9c0.9-0.1,1.9-0.2,2.9-0.3c1-0.1,1.8-0.2,2.5-0.4c1.1-0.3,1.9-1,2.4-1.8c0.5-0.9,0.8-2,0.8-3.4l-0.9-63.9c0-0.7-0.3-2.8-0.7-4.2
	c-0.2-0.7-0.4-1.2-0.5-1.4c-0.2-0.2-0.3-0.4-0.5-0.7c-1-0.9,0.2,0.3-0.7-0.5c-0.6-0.6,0.3-0.2-1.6-0.6c-1.8-0.4-4.9,0.5-6.1,0.4
	l-0.1-4.2l20.9-1.1l1,0.9l0.1,74.7c0,1.4,0.3,2.5,0.8,3.4c0.5,0.9,1.3,1.6,2.4,2c0.9,0.4,1.7,0.7,2.5,0.9c0.8,0.2,1.8,0.4,2.8,0.4
	V273.6z M217.5,273.6h-28.5v-4c0.9-0.1,1.9-0.1,2.8-0.2c1-0.1,1.8-0.2,2.5-0.5c1.1-0.4,1.9-1,2.5-1.9c0.5-0.9,0.8-2.1,0.8-3.5v-36.7
	c0-1.3-0.3-2.4-0.9-3.5c-0.6-1.1-1.4-2-2.4-2.7c-0.8-0.5-1.9-0.9-3.3-1.2c-1.4-0.3-2.7-0.6-3.9-0.6v-3.9l20.8-1.3l0.8,0.8v48.4
	c0,1.4,0.3,2.6,0.8,3.5c0.5,0.9,1.4,1.6,2.5,2c0.9,0.4,1.7,0.7,2.6,0.9c0.8,0.2,1.8,0.4,2.8,0.4V273.6z M209.9,190.1
	c0,2.3-0.7,4.3-2.3,6c-1.5,1.7-3.3,2.6-5.5,2.6c-2,0-3.8-0.8-5.3-2.4c-1.5-1.6-2.2-3.5-2.2-5.6c0-2.2,0.8-4.1,2.2-5.8
	c1.5-1.6,3.3-2.5,5.3-2.5c2.3,0,4.1,0.8,5.6,2.3C209.2,186.2,209.9,188,209.9,190.1 M281.1,272.5c-1.9,0.7-3.5,1.2-5,1.7
	c-1.4,0.4-3,0.7-4.9,0.7c-3.1,0-5.6-0.7-7.5-2.2c-1.9-1.5-3.1-3.6-3.6-6.5h-0.4c-2.6,2.9-5.4,5.1-8.4,6.7c-3,1.5-6.6,2.3-10.8,2.3
	c-4.5,0-8.1-1.4-11-4.1c-2.9-2.7-4.3-6.4-4.3-10.8c0-2.3,0.3-4.4,1-6.2c0.7-1.8,1.6-3.5,2.9-4.9c1-1.2,2.3-2.3,4-3.2
	c1.6-1,3.2-1.7,4.7-2.3c1.8-0.7,5.5-2,11-3.8c5.6-1.9,9.3-3.3,11.2-4.4v-6c0-0.5-0.1-1.5-0.3-3c-0.2-1.5-0.7-2.9-1.4-4.2
	c-0.8-1.5-1.9-2.8-3.4-3.9c-1.5-1.1-3.5-1.7-6.2-1.7c-1.9,0-3.6,0.3-5.1,1c-1.6,0.6-2.7,1.3-3.4,2c0,0.8,0.2,2,0.6,3.6
	c0.4,1.6,0.6,3,0.6,4.4c0,1.4-0.6,2.7-1.9,3.9c-1.3,1.2-3,1.8-5.3,1.8c-2,0-3.5-0.7-4.4-2.2c-0.9-1.4-1.4-3-1.4-4.8
	c0-1.9,0.7-3.6,2-5.4c1.3-1.7,3-3.2,5.1-4.5c1.8-1.2,4-2.1,6.6-2.9c2.6-0.8,5.1-1.2,7.5-1.2c3.4,0,6.3,0.3,8.8,0.7
	c2.5,0.5,4.8,1.5,6.8,3c2.1,1.5,3.6,3.5,4.7,6.1c1.1,2.6,1.6,5.9,1.6,9.9c0,5.8-0.1,10.9-0.2,15.4c-0.1,4.5-0.2,9.4-0.2,14.7
	c0,1.6,0.3,2.8,0.8,3.7c0.5,0.9,1.4,1.7,2.5,2.4c0.6,0.4,1.6,0.6,2.9,0.6c1.3,0,2.7,0.1,4,0.1V272.5z M260,240.4c-3.4,1-6.4,2-9,3
	c-2.6,1-5,2.2-7.2,3.7c-2,1.4-3.6,3-4.8,4.9c-1.2,1.9-1.7,4.1-1.7,6.7c0,3.4,0.9,5.8,2.6,7.4c1.7,1.6,4,2.4,6.7,2.4
	c2.9,0,5.4-0.7,7.6-2.1c2.2-1.4,4-3,5.5-4.9L260,240.4z M352.7,273.6h-29.1v-4c0.9-0.1,2-0.2,3.1-0.3c1.1-0.1,2-0.2,2.7-0.5
	c1.1-0.4,2-1,2.5-1.9c0.6-0.9,0.8-2.1,0.8-3.5v-30.8c0-4.2-1-7.5-3-9.8c-2-2.3-4.4-3.5-7.3-3.5c-2.1,0-4.1,0.3-5.9,1
	c-1.7,0.7-3.3,1.5-4.7,2.5c-1.3,0.9-2.4,1.9-3.2,3c-0.8,1.1-1.4,1.9-1.7,2.6v34.4c0,1.4,0.3,2.5,0.8,3.4c0.6,0.9,1.4,1.6,2.5,2.1
	c0.9,0.4,1.8,0.7,2.8,0.9c1,0.2,2,0.3,3.1,0.4v4H287v-4c0.9-0.1,1.9-0.2,2.9-0.3c1-0.1,1.8-0.2,2.6-0.5c1.1-0.4,2-1,2.5-1.9
	c0.6-0.9,0.8-2.1,0.8-3.5v-37c0-1.4-0.3-2.7-0.9-3.8c-0.6-1.1-1.4-2.1-2.4-2.8c-0.8-0.5-1.7-0.8-2.7-1.1c-1-0.2-2.2-0.4-3.4-0.5
	v-3.9l19.8-1.3l0.8,0.9v8.4h0.3c1-1,2.2-2.1,3.6-3.5c1.4-1.4,2.8-2.5,4.1-3.3c1.5-1,3.3-1.8,5.3-2.4c2-0.6,4.4-1,6.9-1
	c5.7,0,9.9,1.8,12.7,5.4c2.8,3.6,4.1,8.4,4.1,14.3v31.1c0,1.4,0.3,2.6,0.7,3.4c0.5,0.9,1.3,1.6,2.5,2c1,0.4,1.8,0.7,2.5,0.9
	c0.7,0.2,1.7,0.3,2.9,0.4V273.6z M387.5,275.1c-8.6,0-15.3-2.9-20.2-8.6c-4.9-5.7-7.3-13.4-7.3-23.1c0-4.2,0.7-8.1,2-11.8
	c1.3-3.7,3.2-7,5.7-10c2.4-2.9,5.4-5.2,8.9-7c3.5-1.8,7.5-2.7,11.7-2.7c5.8,0,10.6,1.4,14.2,4.2c3.7,2.8,5.5,6.6,5.5,11.5
	c0,2.1-0.5,3.8-1.4,5.4c-1,1.6-2.6,2.4-4.8,2.4c-2.4,0-4.2-0.6-5.5-1.8c-1.3-1.2-2-2.6-2-4.1c0-1.8,0.3-3.7,0.7-5.6
	c0.5-1.9,0.7-3.3,0.8-4.2c-0.7-1.2-1.8-2.1-3.2-2.5c-1.4-0.4-3-0.6-4.6-0.6c-1.9,0-3.8,0.4-5.5,1.2c-1.8,0.8-3.5,2.4-5.1,4.6
	c-1.5,2-2.7,4.8-3.6,8.2c-0.9,3.4-1.4,7.6-1.4,12.3c0,7.5,1.7,13.7,5,18.4c3.3,4.7,7.7,7.1,13.1,7.1c3.9,0,7.2-1,9.8-2.9
	c2.6-1.9,5.1-4.7,7.3-8.5l3.9,2.5c-2.7,4.8-6.2,8.5-10.5,11.3C396.6,273.7,392.1,275.1,387.5,275.1 M469,259.5
	c-2.5,4.8-5.8,8.6-10,11.4c-4.2,2.8-9,4.2-14.4,4.2c-4.8,0-9-0.8-12.6-2.5c-3.6-1.7-6.6-4-8.9-6.9c-2.3-2.9-4.1-6.3-5.2-10.2
	c-1.1-3.9-1.7-8-1.7-12.3c0-3.9,0.6-7.7,1.8-11.4c1.2-3.7,3-7.1,5.4-10.1c2.3-2.9,5.1-5.2,8.5-7c3.4-1.8,7.2-2.7,11.4-2.7
	c4.3,0,8.1,0.7,11.2,2.1c3.1,1.4,5.6,3.2,7.6,5.6c1.8,2.3,3.2,4.9,4.1,8c0.9,3.1,1.4,6.4,1.4,10v4h-39.4c0,3.9,0.4,7.5,1.1,10.7
	c0.7,3.2,1.9,6,3.5,8.4c1.6,2.3,3.6,4.2,6.1,5.6c2.5,1.3,5.6,2,9.1,2c3.6,0,6.7-0.8,9.3-2.5c2.6-1.7,5.1-4.7,7.5-9.1L469,259.5z
	 M455.6,236.6c0-2.3-0.2-4.7-0.6-7.3c-0.4-2.6-1-4.7-1.8-6.5c-0.9-1.9-2.2-3.4-3.8-4.6c-1.6-1.2-3.7-1.8-6.2-1.8
	c-4.2,0-7.7,1.8-10.5,5.3c-2.8,3.5-4.3,8.5-4.5,14.8H455.6z"/>
</svg>
