<svg xmlns="http://www.w3.org/2000/svg" viewBox="0 0 500 500">
  <g id="svgGroup" stroke-linecap="round" fill-rule="evenodd" font-size="9pt" stroke-width="0.25mm" style="stroke: currentcolor; stroke-width: 0.25mm; fill: currentcolor;" transform="matrix(2.968679904937744, 0, 0, 2.968679904937744, 1187.318115234375, 221.22589111328125)">
    <g id="group-1" stroke-linecap="round" fill-rule="evenodd" font-size="9pt" stroke-width="0.25mm" style="stroke: currentColor; stroke-width: 0.25mm; fill: currentColor" transform="matrix(1, 0, 0, 1, -364.503459, -20.335679)">
      <path d="M 96.468 77.29 A 377.485 377.485 0 0 0 96.692 63.847 A 575.645 575.645 0 0 0 96.479 47.676 Q 96.011 31.091 94.518 19.61 A 110.173 110.173 0 0 0 92.573 8.564 Q 91.719 4.946 90.927 3.097 A 8.146 8.146 0 0 0 90.405 2.06 A 5.35 5.35 0 0 0 90.186 1.726 Q 88.957 0 86.774 0 A 5.83 5.83 0 0 0 85.351 0.186 Q 81.182 1.234 75.226 8.192 A 88.096 88.096 0 0 0 71.489 12.9 A 116.016 116.016 0 0 0 66.445 20.218 Q 58.309 33.002 50.839 51.219 A 129.926 129.926 0 0 0 49.798 48.559 A 115.8 115.8 0 0 0 37.181 25.203 A 109.527 109.527 0 0 0 33.306 20.068 Q 28.866 14.506 22.493 7.697 Q 17.941 2.819 14.418 2.819 A 5.505 5.505 0 0 0 10.385 4.534 A 8.925 8.925 0 0 0 9.052 6.288 A 16.326 16.326 0 0 0 8.179 8.048 Q 7.201 10.321 6.237 13.909 A 98.375 98.375 0 0 0 5.312 17.669 A 182.892 182.892 0 0 0 2.661 32.7 Q 0.001 52.224 0.001 78.156 A 456.211 456.211 0 0 0 0.001 78.249 Q 0.003 91.719 0.814 95.499 A 12.929 12.929 0 0 0 0.925 95.951 Q 1.728 98.954 3.659 100.06 A 5.2 5.2 0 0 0 6.288 100.703 A 6.888 6.888 0 0 0 6.685 100.691 Q 10.732 100.458 11.553 95.368 A 18.34 18.34 0 0 0 11.762 92.464 Q 11.762 90.134 11.355 82.979 A 317.95 317.95 0 0 1 11.141 78.73 Q 10.949 74.301 10.949 70.947 Q 10.949 37.181 16.965 17.669 A 127.402 127.402 0 0 1 28.244 31.639 A 99.344 99.344 0 0 1 42.059 59.945 Q 44.129 66.859 44.911 68.942 A 8.019 8.019 0 0 0 45.203 69.646 A 8.005 8.005 0 0 0 45.734 70.573 Q 46.463 71.66 47.444 72.25 A 5.115 5.115 0 0 0 50.135 72.953 A 4.88 4.88 0 0 0 52.767 72.216 Q 53.687 71.643 54.448 70.624 A 10.572 10.572 0 0 0 55.555 68.725 A 4093.98 4093.98 0 0 0 59.566 57.289 A 221.053 221.053 0 0 1 59.578 57.255 Q 65.962 39.639 73.633 27.996 A 69.063 69.063 0 0 1 82.654 16.802 A 337.84 337.84 0 0 1 84.877 35.84 A 260.937 260.937 0 0 1 85.906 58.427 A 378.293 378.293 0 0 1 85.866 64.003 A 331.444 331.444 0 0 1 85.256 79.998 Q 84.768 86.936 84.009 93.711 A 1815.713 1815.713 0 0 0 83.854 95.088 Q 83.359 99.491 83.359 99.727 A 12.839 12.839 0 0 0 83.36 99.895 Q 83.436 105.689 88.779 105.689 Q 92.666 105.689 94.178 100.767 A 19.133 19.133 0 0 0 94.795 97.938 Q 96.04 89.26 96.468 77.29 Z" id="path-1" vector-effect="non-scaling-stroke" style="stroke-opacity: 0; stroke: none;"/>
    </g>
  </g>
  <ellipse style="fill: currentcolor; stroke-opacity: 0; stroke-width: 1px;" cx="163.471" cy="81.388" rx="58.89" ry="58.89" transform="matrix(1, 0, 0, 1, 0, -2.842170943040401e-14)"/>
  <path style="fill: rgb(255, 255, 255); stroke: none; fill-rule: evenodd; stroke-width: 1px;" d="M 208.15 117.217 C 207.157 118.318 166.029 96.208 167.333 94.774 C 162.724 94.77 187.593 132.974 195.933 128.484 C 204.271 124.001 208.313 116.536 208.15 117.217 Z" transform="matrix(1, 0, 0, 1, 0, -2.842170943040401e-14)"/>
  <ellipse style="fill: rgb(255, 255, 255); stroke: none; fill-rule: evenodd; stroke-width: 1px;" cx="190.63" cy="63.894" rx="6.646" ry="10.417" transform="matrix(1, 0, 0, 1, 0, -2.842170943040401e-14)"/>
  <g transform="matrix(2.968679904937744, 0, 0, 2.968679904937744, 83.78813171386719, -80.966796875)">
    <ellipse style="fill: currentColor; paint-order: fill; stroke-opacity: 0;" cx="-85.208" cy="54.848" rx="19.838" ry="19.838" transform="matrix(-1, 0, 0, 1, 0, 0)"/>
    <path style="paint-order: fill; stroke: none; transform-origin: 77.12px 65.1px 0px; fill-rule: evenodd; fill: rgb(255, 255, 255);" d="M 84.099 63.281 C 83.764 62.91 69.89 70.367 70.332 70.852 C 68.776 70.853 77.163 57.967 79.977 59.481 C 82.792 60.995 84.154 63.51 84.099 63.281 Z" transform="matrix(-1, 0, 0, -1, 0.000009, 0.000003)"/>
    <ellipse style="fill: #fff; stroke: none; paint-order: fill; stroke-opacity: 0; fill-rule: evenodd;" cx="-76.063" cy="48.955" rx="2.239" ry="3.509" transform="matrix(-1, 0, 0, 1, 0, 0)"/>
  </g>
  <style>
    g { fill: #000; }

      @media (prefers-color-scheme: dark) {
        g { fill: #FFF; }
      }
  </style>
</svg>
