<svg xmlns="http://www.w3.org/2000/svg" viewBox="0 0 500 200">
  <g id="svgGroup" stroke-linecap="round" fill-rule="evenodd" font-size="9pt" stroke="#000" stroke-width="0.25mm" fill="#000" style="stroke: currentColor; stroke-width: 0.25mm; fill: currentColor;" transform="matrix(1.076153, 0, 0, 1.076153, 411.12597, 90.092719)">
    <path d="M -202.36 17.576 L -202.36 24.08 L -238.46 24.08 L -238.46 32.752 C -238.34 32.752 -238.22 32.801 -238.1 32.9 C -238.07 32.921 -238.05 32.944 -238.03 32.969 C -237.99 33.002 -237.96 33.033 -237.92 33.063 C -237.85 33.123 -237.78 33.161 -237.71 33.177 C -237.69 33.182 -237.67 33.185 -237.65 33.185 C -237.7 33.185 -237.75 33.184 -237.8 33.183 C -237.97 33.178 -238.08 33.163 -238.13 33.139 C -238.13 33.136 -238.13 33.134 -238.13 33.131 C -238.13 32.973 -236.1 32.516 -232.03 31.758 C -231.37 31.636 -230.72 31.515 -230.06 31.397 C -228.07 31.035 -226.1 30.855 -224.15 30.855 C -216.02 30.855 -210.8 33.131 -208.49 37.684 C -208.04 38.595 -207.7 39.552 -207.47 40.539 C -206.68 43.642 -206.25 48.163 -206.17 54.102 C -206.16 54.753 -206.16 55.405 -206.16 56.057 L -206.16 76.924 C -206.92 76.634 -209.79 75.46 -214.78 73.401 C -214.78 72.245 -215.01 71.504 -215.48 71.179 C -217.4 72.299 -218.97 73.148 -220.19 73.726 C -222.61 74.851 -225.18 75.628 -227.81 76.034 C -229.79 76.345 -231.79 76.497 -233.8 76.49 C -236.08 76.51 -238.35 76.243 -240.56 75.696 C -244.34 74.783 -247.74 72.711 -250.28 69.77 C -251.19 68.738 -251.91 67.553 -252.41 66.271 C -252.87 65.069 -253.1 63.793 -253.09 62.507 C -253.08 60.906 -252.68 59.332 -251.93 57.917 C -251.19 56.461 -250.1 55.01 -248.65 53.564 C -243.11 47.955 -235.52 44.844 -227.64 44.949 C -227.51 44.947 -227.37 44.947 -227.24 44.947 C -225.5 44.936 -223.77 45.09 -222.06 45.409 C -220.03 45.801 -218.21 46.443 -216.6 47.336 C -215.96 47.688 -215.35 48.085 -214.78 48.524 L -214.78 43.537 C -216.37 41.513 -217.91 40.158 -219.41 39.472 C -220.77 38.851 -222.57 38.541 -224.83 38.541 C -225.07 38.541 -225.32 38.544 -225.56 38.551 C -229.04 38.599 -232.51 39.043 -235.9 39.876 C -237.82 40.357 -239.72 40.983 -241.55 41.749 C -243.13 42.409 -244.73 43.036 -246.34 43.629 C -246.85 43.819 -247.37 44.005 -247.89 44.188 L -247.89 40.177 C -247.76 40.065 -247.63 39.954 -247.5 39.842 C -247.2 39.585 -246.84 39.276 -246.43 38.915 C -246.23 38.739 -246.03 38.564 -245.83 38.388 C -245.81 38.356 -245.78 38.325 -245.76 38.294 C -245.66 38.169 -245.59 38.092 -245.56 38.063 L -245.56 24.08 L -256.67 24.08 L -256.67 17.576 L -202.36 17.576 Z M -214.78 58.388 C -214.79 57.811 -215.02 57.26 -215.42 56.841 C -216.18 55.949 -217.64 55.117 -219.78 54.343 C -220.01 54.261 -220.24 54.182 -220.47 54.106 C -221.39 53.796 -222.32 53.52 -223.26 53.277 C -224.21 53.033 -225.1 52.85 -225.94 52.726 C -226.73 52.603 -227.53 52.539 -228.32 52.534 C -231.31 52.5 -234.27 52.987 -237.09 53.974 C -240.83 55.338 -244.13 57.687 -246.64 60.773 C -247.07 61.28 -247.47 61.806 -247.85 62.351 C -248.89 63.855 -249.41 65.135 -249.41 66.193 C -249.04 67.414 -248.17 68.421 -247.02 68.962 C -245.77 69.61 -244.08 69.993 -241.94 70.111 C -241.45 70.137 -240.96 70.149 -240.47 70.149 C -233.97 70.212 -227.59 68.466 -222.04 65.109 C -218.25 62.817 -215.94 60.947 -215.12 59.497 C -214.91 59.163 -214.79 58.781 -214.78 58.388 Z" id="0" vector-effect="non-scaling-stroke" style="stroke-opacity: 0; stroke: none;"></path>
    <path d="M -189.46 62.399 L -189.46 78.171 L -198.35 73.51 L -198.35 32.752 L -189.03 32.752 L -189.03 39.201 L -184.21 35.57 C -179.94 32.354 -175.44 30.746 -170.71 30.746 C -165.05 30.636 -159.62 32.937 -155.76 37.076 C -155.4 37.448 -155.06 37.832 -154.72 38.226 C -150.91 42.724 -148.8 48.422 -148.77 54.32 C -148.76 54.574 -148.76 54.828 -148.76 55.082 C -148.76 63.188 -152.15 70.976 -158.92 78.447 C -159 78.536 -159.09 78.624 -159.17 78.713 L -169.63 72.155 C -166.38 68.939 -163.61 65.976 -161.34 63.266 C -158.12 59.436 -156.51 54.305 -156.51 47.873 C -156.49 46.172 -156.68 44.475 -157.09 42.825 C -158.49 37.518 -162.4 34.865 -168.81 34.865 C -174.88 34.865 -179.96 38.045 -184.04 44.405 C -187.66 50.041 -189.46 56.039 -189.46 62.399 Z M -144.86 17.576 L -144.86 24.08 L -203.12 24.08 L -203.12 17.576 L -144.86 17.576 Z" id="1" vector-effect="non-scaling-stroke" style="stroke-opacity: 0; stroke: none;"></path>
    <path d="M -97.759 17.576 L -97.759 24.08 L -125.18 24.08 L -125.18 67.71 C -125.18 68.651 -124.95 69.577 -124.51 70.412 C -124.36 70.715 -124.18 71.007 -123.99 71.287 C -123.77 71.636 -123.5 71.958 -123.2 72.247 C -122.79 72.637 -122.34 72.906 -121.86 73.052 C -121.57 73.14 -121.26 73.185 -120.96 73.184 C -115.57 73.184 -112.88 67.619 -112.88 56.491 L -101.99 62.724 C -103.03 65.109 -104.39 67.347 -106.02 69.379 C -109.9 74.12 -114.96 76.491 -121.18 76.491 C -121.21 76.49 -121.25 76.49 -121.28 76.49 C -125.17 76.56 -128.89 74.871 -131.39 71.894 C -132.02 71.161 -132.59 70.378 -133.1 69.553 C -133.64 68.69 -134.08 67.768 -134.4 66.805 C -134.75 65.769 -134.94 64.684 -134.94 63.591 L -134.94 24.08 L -146.27 24.08 L -146.27 17.576 L -134.94 17.576 L -134.94 -0.635 L -125.18 6.14 L -125.18 17.576 L -97.759 17.576 Z" id="2" vector-effect="non-scaling-stroke" style="stroke-opacity: 0; stroke: none;"></path>
    <path d="M -59.386 55.841 L -67.516 46.627 C -65.444 46.435 -63.444 45.767 -61.672 44.676 C -61.279 44.439 -60.896 44.185 -60.524 43.917 C -59.844 43.439 -59.216 42.893 -58.648 42.287 C -57.369 40.898 -56.73 39.382 -56.73 37.738 C -56.735 37.046 -56.994 36.38 -57.459 35.867 C -57.704 35.579 -58.01 35.307 -58.379 35.049 C -58.615 34.883 -58.861 34.731 -59.115 34.594 C -59.711 34.244 -60.344 33.961 -61.002 33.749 C -61.706 33.522 -62.44 33.405 -63.18 33.402 C -64.473 33.417 -65.751 33.677 -66.946 34.17 C -67.927 34.558 -68.929 35.093 -69.954 35.776 C -70.707 36.281 -71.431 36.827 -72.123 37.413 C -74.014 38.972 -75.729 40.732 -77.239 42.663 C -80.296 46.637 -81.824 50.885 -81.824 55.407 L -81.824 78.387 L -92.231 72.968 L -92.231 32.86 L -81.716 32.86 L -81.716 36.979 C -81.23 36.508 -80.697 36.088 -80.126 35.726 C -78.337 34.556 -75.651 33.348 -72.068 32.101 C -69.699 31.272 -67.207 30.851 -64.697 30.855 C -59.89 30.793 -55.277 32.742 -51.97 36.231 C -51.764 36.44 -51.562 36.653 -51.364 36.871 C -50.491 37.813 -49.802 38.91 -49.332 40.105 C -48.914 41.2 -48.703 42.364 -48.709 43.537 C -48.722 44.397 -48.904 45.246 -49.244 46.036 C -49.784 47.354 -50.733 48.758 -52.091 50.248 C -52.244 50.416 -52.399 50.582 -52.557 50.746 C -53.582 51.831 -54.697 52.829 -55.89 53.727 C -56.981 54.547 -58.152 55.256 -59.386 55.841 Z M -44.21 17.576 L -44.21 24.08 L -99 24.08 L -99 17.576 L -44.21 17.576 Z" id="3" vector-effect="non-scaling-stroke" style="stroke-opacity: 0; stroke: none;"></path>
    <path d="M 7.767 17.576 L 7.767 24.08 L -28.33 24.08 L -28.33 32.752 C -28.21 32.752 -28.09 32.801 -27.971 32.9 C -27.945 32.921 -27.92 32.944 -27.896 32.969 C -27.863 33.002 -27.828 33.033 -27.791 33.063 C -27.716 33.123 -27.646 33.161 -27.581 33.177 C -27.56 33.182 -27.538 33.185 -27.517 33.185 C -27.566 33.185 -27.616 33.184 -27.665 33.183 C -27.844 33.178 -27.954 33.163 -27.995 33.139 C -27.998 33.136 -28.001 33.134 -28.004 33.131 C -28.004 32.973 -25.967 32.516 -21.894 31.758 C -21.239 31.636 -20.584 31.515 -19.929 31.397 C -17.942 31.035 -15.972 30.855 -14.021 30.855 C -5.891 30.855 -0.67 33.131 1.642 37.684 C 2.086 38.595 2.428 39.552 2.662 40.539 C 3.451 43.642 3.884 48.163 3.961 54.102 C 3.969 54.753 3.973 55.405 3.973 56.057 L 3.973 76.924 C 3.214 76.634 0.342 75.46 -4.645 73.401 C -4.645 72.245 -4.88 71.504 -5.349 71.179 C -7.264 72.299 -8.836 73.148 -10.065 73.726 C -12.483 74.851 -15.048 75.628 -17.684 76.034 C -19.664 76.345 -21.665 76.497 -23.669 76.49 C -25.948 76.51 -28.22 76.243 -30.433 75.696 C -34.21 74.783 -37.606 72.711 -40.145 69.77 C -41.057 68.738 -41.78 67.553 -42.281 66.271 C -42.737 65.068 -42.969 63.793 -42.963 62.507 C -42.947 60.906 -42.548 59.332 -41.8 57.917 C -41.059 56.461 -39.966 55.01 -38.519 53.564 C -32.978 47.955 -25.392 44.844 -17.509 44.949 C -17.376 44.947 -17.243 44.947 -17.11 44.947 C -15.373 44.936 -13.639 45.091 -11.932 45.409 C -9.899 45.801 -8.078 46.443 -6.469 47.336 C -5.833 47.688 -5.224 48.085 -4.645 48.524 L -4.645 43.537 C -6.234 41.513 -7.779 40.158 -9.279 39.472 C -10.636 38.851 -12.443 38.541 -14.702 38.541 C -14.945 38.541 -15.187 38.544 -15.43 38.551 C -18.914 38.599 -22.382 39.043 -25.766 39.876 C -27.695 40.357 -29.584 40.983 -31.419 41.749 C -33.001 42.409 -34.597 43.036 -36.206 43.629 C -36.722 43.819 -37.241 44.005 -37.76 44.188 L -37.76 40.177 C -37.628 40.065 -37.497 39.954 -37.367 39.842 C -37.069 39.585 -36.713 39.276 -36.3 38.915 C -36.1 38.739 -35.9 38.564 -35.701 38.388 C -35.676 38.356 -35.65 38.325 -35.625 38.294 C -35.524 38.169 -35.459 38.092 -35.43 38.063 L -35.43 24.08 L -46.541 24.08 L -46.541 17.576 L 7.767 17.576 Z M -4.645 58.388 C -4.662 57.811 -4.89 57.26 -5.287 56.841 C -6.054 55.949 -7.509 55.117 -9.652 54.343 C -9.879 54.261 -10.107 54.182 -10.336 54.106 C -11.257 53.796 -12.188 53.52 -13.129 53.277 C -14.082 53.033 -14.975 52.85 -15.808 52.726 C -16.597 52.603 -17.395 52.539 -18.194 52.534 C -21.177 52.5 -24.143 52.987 -26.959 53.974 C -30.698 55.338 -33.999 57.687 -36.514 60.773 C -36.941 61.28 -37.344 61.806 -37.723 62.351 C -38.76 63.855 -39.278 65.135 -39.278 66.193 C -38.911 67.414 -38.041 68.421 -36.886 68.962 C -35.643 69.61 -33.952 69.993 -31.813 70.111 C -31.321 70.137 -30.828 70.149 -30.335 70.149 C -23.843 70.212 -17.463 68.467 -11.907 65.109 C -8.117 62.817 -5.81 60.947 -4.987 59.497 C -4.779 59.163 -4.661 58.781 -4.645 58.388 Z" id="4" vector-effect="non-scaling-stroke" style="stroke-opacity: 0; stroke: none;"></path>
    <path d="M 20.666 62.399 L 20.666 78.171 L 11.778 73.51 L 11.778 32.752 L 21.1 32.752 L 21.1 39.201 L 25.924 35.57 C 30.187 32.354 34.686 30.746 39.419 30.746 C 45.076 30.636 50.513 32.937 54.371 37.076 C 54.729 37.448 55.074 37.832 55.408 38.226 C 59.222 42.724 61.33 48.422 61.361 54.32 C 61.367 54.574 61.37 54.828 61.37 55.082 C 61.37 63.188 57.982 70.976 51.206 78.447 C 51.126 78.536 51.045 78.624 50.964 78.713 L 40.503 72.155 C 43.755 68.939 46.519 65.976 48.796 63.266 C 52.012 59.436 53.62 54.305 53.62 47.873 C 53.642 46.172 53.446 44.475 53.036 42.825 C 51.639 37.518 47.732 34.865 41.316 34.865 C 35.246 34.865 30.169 38.045 26.086 44.405 C 22.473 50.041 20.666 56.039 20.666 62.399 Z M 65.272 17.576 L 65.272 24.08 L 7.008 24.08 L 7.008 17.576 L 65.272 17.576 Z" id="5" vector-effect="non-scaling-stroke" style="stroke-opacity: 0; stroke: none;"></path>
    <g id="group-1" stroke-linecap="round" fill-rule="evenodd" font-size="9pt" stroke="#000" stroke-width="0.25mm" fill="#000" style="stroke: currentColor; stroke-width: 0.25mm; fill: currentColor" transform="matrix(1, 0, 0, 1, -364.503459, -20.335679)">
      <path d="M 96.468 77.29 A 377.485 377.485 0 0 0 96.692 63.847 A 575.645 575.645 0 0 0 96.479 47.676 Q 96.011 31.091 94.518 19.61 A 110.173 110.173 0 0 0 92.573 8.564 Q 91.719 4.946 90.927 3.097 A 8.146 8.146 0 0 0 90.405 2.06 A 5.35 5.35 0 0 0 90.186 1.726 Q 88.957 0 86.774 0 A 5.83 5.83 0 0 0 85.351 0.186 Q 81.182 1.234 75.226 8.192 A 88.096 88.096 0 0 0 71.489 12.9 A 116.016 116.016 0 0 0 66.445 20.218 Q 58.309 33.002 50.839 51.219 A 129.926 129.926 0 0 0 49.798 48.559 A 115.8 115.8 0 0 0 37.181 25.203 A 109.527 109.527 0 0 0 33.306 20.068 Q 28.866 14.506 22.493 7.697 Q 17.941 2.819 14.418 2.819 A 5.505 5.505 0 0 0 10.385 4.534 A 8.925 8.925 0 0 0 9.052 6.288 A 16.326 16.326 0 0 0 8.179 8.048 Q 7.201 10.321 6.237 13.909 A 98.375 98.375 0 0 0 5.312 17.669 A 182.892 182.892 0 0 0 2.661 32.7 Q 0.001 52.224 0.001 78.156 A 456.211 456.211 0 0 0 0.001 78.249 Q 0.003 91.719 0.814 95.499 A 12.929 12.929 0 0 0 0.925 95.951 Q 1.728 98.954 3.659 100.06 A 5.2 5.2 0 0 0 6.288 100.703 A 6.888 6.888 0 0 0 6.685 100.691 Q 10.732 100.458 11.553 95.368 A 18.34 18.34 0 0 0 11.762 92.464 Q 11.762 90.134 11.355 82.979 A 317.95 317.95 0 0 1 11.141 78.73 Q 10.949 74.301 10.949 70.947 Q 10.949 37.181 16.965 17.669 A 127.402 127.402 0 0 1 28.244 31.639 A 99.344 99.344 0 0 1 42.059 59.945 Q 44.129 66.859 44.911 68.942 A 8.019 8.019 0 0 0 45.203 69.646 A 8.005 8.005 0 0 0 45.734 70.573 Q 46.463 71.66 47.444 72.25 A 5.115 5.115 0 0 0 50.135 72.953 A 4.88 4.88 0 0 0 52.767 72.216 Q 53.687 71.643 54.448 70.624 A 10.572 10.572 0 0 0 55.555 68.725 A 4093.98 4093.98 0 0 0 59.566 57.289 A 221.053 221.053 0 0 1 59.578 57.255 Q 65.962 39.639 73.633 27.996 A 69.063 69.063 0 0 1 82.654 16.802 A 337.84 337.84 0 0 1 84.877 35.84 A 260.937 260.937 0 0 1 85.906 58.427 A 378.293 378.293 0 0 1 85.866 64.003 A 331.444 331.444 0 0 1 85.256 79.998 Q 84.768 86.936 84.009 93.711 A 1815.713 1815.713 0 0 0 83.854 95.088 Q 83.359 99.491 83.359 99.727 A 12.839 12.839 0 0 0 83.36 99.895 Q 83.436 105.689 88.779 105.689 Q 92.666 105.689 94.178 100.767 A 19.133 19.133 0 0 0 94.795 97.938 Q 96.04 89.26 96.468 77.29 Z" id="path-1" vector-effect="non-scaling-stroke" style="stroke-opacity: 0; stroke: none;"></path>
    </g>
  </g>
  <ellipse style="fill: currentColor; stroke-opacity: 0;" cx="39.979" cy="39.402" rx="21.348" ry="21.348"></ellipse>
  <path style="fill: #fff; stroke: none; fill-rule: evenodd;" d="M 56.175 52.39 C 55.815 52.789 40.906 44.774 41.379 44.254 C 39.708 44.253 48.723 58.102 51.746 56.474 C 54.769 54.849 56.234 52.143 56.175 52.39 Z"></path>
  <ellipse style="fill: #fff; stroke: none; fill-rule: evenodd;" cx="49.824" cy="33.06" rx="2.409" ry="3.776"></ellipse>
  <g style="" transform="matrix(1.076153, 0, 0, 1.076153, 11.093984, -19.452774)">
    <ellipse style="fill: currentColor; paint-order: fill; stroke-opacity: 0;" cx="-85.208" cy="54.848" rx="19.838" ry="19.838" transform="matrix(-1, 0, 0, 1, 0, 0)"></ellipse>
    <path style="paint-order: fill; stroke: none; transform-box: fill-box; transform-origin: 50% 50%; fill-rule: evenodd; fill: #fff;" d="M 84.099 63.281 C 83.764 62.91 69.89 70.367 70.332 70.852 C 68.776 70.853 77.163 57.967 79.977 59.481 C 82.792 60.995 84.154 63.51 84.099 63.281 Z" transform="matrix(-1, 0, 0, -1, 0.000009, 0.000003)"></path>
    <ellipse style="fill: #fff; stroke: none; paint-order: fill; stroke-opacity: 0; fill-rule: evenodd;" cx="-76.063" cy="48.955" rx="2.239" ry="3.509" transform="matrix(-1, 0, 0, 1, 0, 0)"></ellipse>
  </g>
</svg>
